<?xml version="1.0" encoding="iso-8859-1"?>
<!-- Generator: Adobe Illustrator 18.0.0, SVG Export Plug-In . SVG Version: 6.00 Build 0)  -->
<!DOCTYPE svg PUBLIC "-//W3C//DTD SVG 1.1//EN" "http://www.w3.org/Graphics/SVG/1.1/DTD/svg11.dtd">
<svg version="1.1" id="Capa_1" xmlns="http://www.w3.org/2000/svg" xmlns:xlink="http://www.w3.org/1999/xlink" x="0px" y="0px"
	 viewBox="0 0 297 297" style="enable-background:new 0 0 297 297;" xml:space="preserve">
<g>
	<path d="M247.717,78.946c5.589,0,11.18-2.128,15.436-6.384c4.005-4.006,6.101-9.194,6.336-14.451
		c0.036-0.324,0.058-0.652,0.058-0.986V27.191h16.993c4.909,0,8.889-3.98,8.889-8.889s-3.98-8.889-8.889-8.889h-25.882
		c-4.909,0-8.889,3.98-8.889,8.889v17.386c-6.85-1.285-14.2,0.712-19.49,6.001c-8.511,8.511-8.51,22.36,0.001,30.872
		C236.536,76.817,242.126,78.946,247.717,78.946z"/>
	<path d="M286.539,266.669h-47.433l-13.595-13.595h9.263c1.124,0,2.241-0.181,3.307-0.536l51.765-17.255
		c5.479-1.827,8.441-7.749,6.615-13.228c-1.827-5.478-7.747-8.441-13.228-6.615l-50.155,16.719h-74.17
		c-18.926,15.215-60.728,19.022-96.285,19.188L7.588,267.071c-5.554,1.587-8.769,7.374-7.182,12.928
		c1.312,4.594,5.499,7.588,10.05,7.588c0.951,0,1.918-0.131,2.878-0.405l119.376-34.108h63.223l31.447,31.447
		c1.962,1.961,4.621,3.063,7.395,3.063h51.765c5.775,0,10.457-4.682,10.457-10.457C296.997,271.351,292.314,266.669,286.539,266.669
		z"/>
	<path d="M124.139,141.645c9.901,6.546,21.758,8.847,33.395,6.475c11.632-2.373,21.644-9.133,28.192-19.036
		c6.547-9.903,8.846-21.763,6.474-33.395c-2.372-11.632-9.132-21.643-19.035-28.19c-7.359-4.865-15.801-7.386-24.424-7.386
		c-2.981,0-5.984,0.301-8.972,0.91c-11.632,2.372-21.643,9.133-28.191,19.035c-6.547,9.903-8.847,21.763-6.475,33.395
		C107.476,125.084,114.236,135.097,124.139,141.645z M150.776,82.783c1.946-1.945,4.644-3.065,7.394-3.065
		c2.75,0,5.438,1.119,7.393,3.065c1.945,1.955,3.065,4.643,3.065,7.393c0,2.75-1.119,5.448-3.065,7.394
		c-1.944,1.945-4.643,3.064-7.393,3.064c-2.761,0-5.448-1.118-7.394-3.064c-1.945-1.945-3.064-4.632-3.064-7.394
		C147.712,87.426,148.831,84.728,150.776,82.783z"/>
	<path d="M205.275,121.535l15.834-12.413c1.958-1.535,3.023-3.841,2.923-6.327c-0.1-2.486-1.348-4.699-3.423-6.071l-15.777-10.431
		c0.682,2.11,1.263,4.265,1.713,6.47C208.526,102.475,208.054,112.304,205.275,121.535z"/>
	<path d="M154.047,163.407c-5.546,14.85-28.295,52.019-117.061,52.019c-1.694,0-3.341-0.03-4.952-0.085
		c-1.146,5.517-2.238,11.207-3.259,17.082c-0.205,1.18,0.305,2.032,0.628,2.436c0.323,0.402,1.043,1.087,2.24,1.144
		c47.518,2.305,103.917-0.875,119.723-16.684c0,0,0-0.001,0.001-0.001c11.653-11.654,18.071-27.147,18.071-43.628
		c0-5.179-0.656-10.253-1.892-15.146c-2.306,0.773-4.666,1.426-7.087,1.92C158.325,162.899,156.185,163.207,154.047,163.407z"/>
	<path d="M36.986,200.786c50.253,0,76.025-12.646,88.796-23.254c6.455-5.362,10.265-10.665,12.495-14.767
		c-7.835-1.395-15.375-4.387-22.213-8.908c-13.165-8.704-22.152-22.014-25.305-37.478c-0.255-1.252-0.455-2.506-0.629-3.76
		c-22.623,2.159-36.946,8.846-49.689,15.666c-4.855,2.598-16.225,12.264-26.299,25.617C3.826,167.573-0.985,179.815,0.939,187.49
		C3.696,198.479,22.063,200.786,36.986,200.786z"/>
</g>
<g>
</g>
<g>
</g>
<g>
</g>
<g>
</g>
<g>
</g>
<g>
</g>
<g>
</g>
<g>
</g>
<g>
</g>
<g>
</g>
<g>
</g>
<g>
</g>
<g>
</g>
<g>
</g>
<g>
</g>
</svg>
