<?xml version="1.0" encoding="iso-8859-1"?>
<!-- Generator: Adobe Illustrator 16.0.0, SVG Export Plug-In . SVG Version: 6.00 Build 0)  -->
<!DOCTYPE svg PUBLIC "-//W3C//DTD SVG 1.1//EN" "http://www.w3.org/Graphics/SVG/1.1/DTD/svg11.dtd">
<svg version="1.1" id="Capa_1" xmlns="http://www.w3.org/2000/svg" xmlns:xlink="http://www.w3.org/1999/xlink" x="0px" y="0px"
	 width="315.493px" height="315.493px" viewBox="0 0 315.493 315.493" style="enable-background:new 0 0 315.493 315.493;"
	 xml:space="preserve">
<g>
	<path d="M5.303,264.225H310.19c2.926,0,5.303-2.377,5.303-5.303V56.571c0-2.926-2.377-5.303-5.303-5.303H5.303
		C2.377,51.269,0,53.646,0,56.571v202.351C0,261.853,2.377,264.225,5.303,264.225z M255.4,73.804h31.814v31.814H255.4V73.804z
		 M255.4,121.525h31.814v31.814H255.4V121.525z M249.13,208.13c0-12.733,10.325-23.059,23.059-23.059
		c1.424,0,2.812,0.166,4.168,0.414l5.101-8.927c1.817-3.18,5.856-4.287,9.046-2.465c3.18,1.817,4.288,5.861,2.465,9.046
		l-4.805,8.409c4.354,4.194,7.094,10.062,7.094,16.581c0,12.732-10.325,23.058-23.063,23.058c-2.144,0-4.179-0.383-6.146-0.932
		l-4.888,8.56c-1.228,2.138-3.465,3.34-5.759,3.34c-1.113,0-2.242-0.28-3.282-0.875c-3.18-1.817-4.283-5.867-2.465-9.047
		l5.183-9.077C251.325,219.117,249.13,213.903,249.13,208.13z M185.144,84.409h12.816h12.815c10.714,0,19.444,8.723,19.444,19.444
		s-8.721,19.444-19.444,19.444h-7.513v107.902c0,2.92-2.372,5.302-5.303,5.302c-2.926,0-5.303-2.382-5.303-5.302V123.291h-7.514
		c-10.713,0-19.443-8.723-19.443-19.443C165.7,93.131,174.42,84.409,185.144,84.409z M105.608,174.549h7.514V89.711
		c0-2.926,2.376-5.302,5.302-5.302c2.928,0,5.302,2.376,5.302,5.302v84.838h7.514c10.716,0,19.444,8.721,19.444,19.444
		s-8.723,19.444-19.444,19.444h-7.514v17.761c0,2.92-2.374,5.302-5.302,5.302c-2.926,0-5.302-2.382-5.302-5.302v-17.761h-7.514
		c-10.716,0-19.444-8.721-19.444-19.444S94.887,174.549,105.608,174.549z M31.375,105.618h7.513V89.711
		c0-2.926,2.377-5.302,5.303-5.302c2.928,0,5.302,2.376,5.302,5.302v15.907h7.513c10.716,0,19.444,8.723,19.444,19.444
		s-8.723,19.444-19.444,19.444h-7.513v86.692c0,2.92-2.374,5.302-5.302,5.302c-2.926,0-5.303-2.382-5.303-5.302v-86.697h-7.513
		c-10.716,0-19.444-8.723-19.444-19.444C11.931,114.341,20.653,105.618,31.375,105.618z"/>
	<path d="M31.375,133.896h7.513h10.605h7.513c4.873,0,8.839-3.966,8.839-8.839c0-4.872-3.972-8.833-8.844-8.833h-7.514H38.883
		h-7.508c-4.873,0-8.839,3.966-8.839,8.839S26.502,133.896,31.375,133.896z"/>
	<path d="M105.608,202.827h7.514h10.604h7.514c4.873,0,8.839-3.967,8.839-8.839c0-4.873-3.971-8.834-8.844-8.834h-7.513h-10.605
		h-7.514c-4.872,0-8.839,3.967-8.839,8.839C96.764,198.866,100.735,202.827,105.608,202.827z"/>
	<path d="M185.144,112.687h7.514h10.605h7.513c4.873,0,8.839-3.967,8.839-8.839c0-4.873-3.971-8.834-8.844-8.834h-7.514h-10.604
		h-7.514c-4.872,0-8.839,3.966-8.839,8.839S180.271,112.687,185.144,112.687z"/>
</g>
<g>
</g>
<g>
</g>
<g>
</g>
<g>
</g>
<g>
</g>
<g>
</g>
<g>
</g>
<g>
</g>
<g>
</g>
<g>
</g>
<g>
</g>
<g>
</g>
<g>
</g>
<g>
</g>
<g>
</g>
</svg>
