<?xml version="1.0" encoding="iso-8859-1"?>
<!-- Generator: Adobe Illustrator 19.1.0, SVG Export Plug-In . SVG Version: 6.00 Build 0)  -->
<svg version="1.1" id="Capa_1" xmlns="http://www.w3.org/2000/svg" xmlns:xlink="http://www.w3.org/1999/xlink" x="0px" y="0px"
	 viewBox="0 0 485 485" style="enable-background:new 0 0 485 485;" xml:space="preserve">
<g>
	<g>
		<path d="M271.2,125.5c-5.3-5.3-13.8-5.3-19.1,0c-5.3,5.3-5.3,13.8,0,19.1l84.4,84.4h-323C6,229,0,235,0,242.5S6,256,13.5,256h323
			l-84.4,84.4c-5.3,5.3-5.3,13.8,0,19.1c2.6,2.6,6.1,4,9.5,4c3.5,0,6.9-1.3,9.5-4L378.6,252c2.5-2.5,4-6,4-9.5s-1.4-7-4-9.5
			L271.2,125.5z"/>
		<path d="M471.5,45C464,45,458,51,458,58.5v368c0,7.5,6,13.5,13.5,13.5s13.5-6,13.5-13.5v-368C485,51,479,45,471.5,45z"/>
	</g>
</g>
<g>
</g>
<g>
</g>
<g>
</g>
<g>
</g>
<g>
</g>
<g>
</g>
<g>
</g>
<g>
</g>
<g>
</g>
<g>
</g>
<g>
</g>
<g>
</g>
<g>
</g>
<g>
</g>
<g>
</g>
</svg>
